# xmcd
#
# Track frame offsets:
#        150
#        18542
#        35904
#        54206
#        71655
#        85887
#        103357
#        122689
#        140296
#        155800
#        178310
#        202672
#
# Disc length: 3048 seconds
#
# Revision: 0
# Processed by: cddbd v1.5.1PL0 Copyright (c) Steve Scherf et al.
# Submitted via: ExactAudioCopy v0.95a5
#
DISCID=ab0be60c
DTITLE=Silvertide - Show And Tell
DYEAR=2004
DGENRE=Hard Rock
TTITLE0=Ain't Comin' Home
TTITLE1=Devil's Daughter
TTITLE2=S.F.C.
TTITLE3=California Rain
TTITLE4=Blue Jeans
TTITLE5=Mary Jayne
TTITLE6=Heartstrong
TTITLE7=To See Where I Hide
TTITLE8=You Want It All
TTITLE9=Nothing Stays
TTITLE10=Foxhole J.C.
TTITLE11=Adult Child
EXTD=
EXTT0=
EXTT1=
EXTT2=
EXTT3=
EXTT4=
EXTT5=
EXTT6=
EXTT7=
EXTT8=
EXTT9=
EXTT10=
EXTT11=
PLAYORDER=
